<svg width="24" height="24" viewBox="0 0 24 24" fill="none" xmlns="http://www.w3.org/2000/svg">
<path d="M20.469 11.622L12.369 3.522C12.045 3.198 11.595 3 11.1 3H4.8C3.81 3 3 3.81 3 4.8V11.1C3 11.595 3.198 12.045 3.531 12.378L11.631 20.478C11.955 20.802 12.405 21 12.9 21C13.395 21 13.845 20.802 14.169 20.469L20.469 14.169C20.802 13.845 21 13.395 21 12.9C21 12.405 20.793 11.946 20.469 11.622Z" stroke="white"/>
<path d="M7.5 9.3C8.49411 9.3 9.3 8.49411 9.3 7.5C9.3 6.50589 8.49411 5.7 7.5 5.7C6.50589 5.7 5.7 6.50589 5.7 7.5C5.7 8.49411 6.50589 9.3 7.5 9.3Z" stroke="white"/>
<path d="M13.3536 15.9506L15.1214 14.1827C15.2372 14.067 15.3292 13.9302 15.3976 13.7724C15.466 13.6145 15.5002 13.4462 15.5002 13.2673C15.5002 12.9095 15.374 12.6043 15.1214 12.3518C14.8689 12.0992 14.5637 11.973 14.2059 11.973C14.006 11.973 13.8087 12.0308 13.614 12.1466C13.4194 12.2623 13.1852 12.457 12.9116 12.7306C12.596 12.436 12.3487 12.236 12.1698 12.1308C11.9909 12.0256 11.8068 11.973 11.6173 11.973C11.2596 11.973 10.9544 12.0992 10.7019 12.3518C10.4493 12.6043 10.323 12.9095 10.323 13.2673C10.323 13.4462 10.3572 13.6145 10.4256 13.7724C10.494 13.9302 10.5861 14.067 10.7019 14.1827L12.4697 15.9506C12.596 16.0768 12.7433 16.14 12.9116 16.14C13.08 16.14 13.2273 16.0768 13.3536 15.9506Z" stroke="white"/>
</svg>
