<svg width="24" height="24" viewBox="0 0 24 24" fill="none" xmlns="http://www.w3.org/2000/svg">
<path d="M5.75 18.9093V18.908V18.9047V18.9014V18.8981V18.8948V18.8914V18.8881V18.8848V18.8814V18.878V18.8747V18.8713V18.8679V18.8645V18.8611V18.8577V18.8543V18.8509V18.8475V18.8441V18.8406V18.8372V18.8337V18.8302V18.8268V18.8233V18.8198V18.8163V18.8128V18.8093V18.8058V18.8023V18.7988V18.7952V18.7917V18.7881V18.7846V18.781V18.7774V18.7738V18.7703V18.7667V18.7631V18.7595V18.7558V18.7522V18.7486V18.745V18.7413V18.7377V18.734V18.7303V18.7267V18.723V18.7193V18.7156V18.7119V18.7082V18.7045V18.7008V18.697V18.6933V18.6896V18.6858V18.6821V18.6783V18.6745V18.6707V18.667V18.6632V18.6594V18.6556V18.6518V18.6479V18.6441V18.6403V18.6365V18.6326V18.6288V18.6249V18.621V18.6172V18.6133V18.6094V18.6055V18.6016V18.5977V18.5938V18.5899V18.586V18.582V18.5781V18.5742V18.5702V18.5663V18.5623V18.5583V18.5543V18.5504V18.5464V18.5424V18.5384V18.5344V18.5304V18.5263V18.5223V18.5183V18.5142V18.5102V18.5061V18.5021V18.498V18.4939V18.4899V18.4858V18.4817V18.4776V18.4735V18.4694V18.4653V18.4612V18.457V18.4529V18.4488V18.4446V18.4405V18.4363V18.4321V18.428V18.4238V18.4196V18.4154V18.4112V18.407V18.4028V18.3986V18.3944V18.3902V18.3859V18.3817V18.3775V18.3732V18.369V18.3647V18.3604V18.3562V18.3519V18.3476V18.3433V18.339V18.3347V18.3304V18.3261V18.3218V18.3175V18.3131V18.3088V18.3045V18.3001V18.2958V18.2914V18.2871V18.2827V18.2783V18.2739V18.2695V18.2652V18.2608V18.2564V18.2519V18.2475V18.2431V18.2387V18.2343V18.2298V18.2254V18.2209V18.2165V18.212V18.2076V18.2031V18.1986V18.1942V18.1897V18.1852V18.1807V18.1762V18.1717V18.1672V18.1627V18.1581V18.1536V18.1491V18.1445V18.14V18.1355V18.1309V18.1263V18.1218V18.1172V18.1126V18.1081V18.1035V18.0989V18.0943V18.0897V18.0851V18.0805V18.0759V18.0713V18.0666V18.062V18.0574V18.0527V18.0481V18.0434V18.0388V18.0341V18.0295V18.0248V18.0201V18.0154V18.0108V18.0061V18.0014V17.9967V17.992V17.9873V17.9826V17.9779V17.9731V17.9684V17.9637V17.9589V17.9542V17.9495V17.9447V17.9399V17.9352V17.9304V17.9257V17.9209V17.9161V17.9113V17.9065V17.9017V17.897V17.8922V17.8873V17.8825V17.8777V17.8729V17.8681V17.8633V17.8584V17.8536V17.8487V17.8439V17.8391V17.8342V17.8293V17.8245V17.8196V17.8147V17.8099V17.805V17.8001V17.7952V17.7903V17.7854V17.7805V17.7756V17.7707V17.7658V17.7609V17.756V17.751V17.7461V17.7412V17.7362V17.7313V17.7263V17.7214V17.7164V17.7115V17.7065V17.7015V17.6966V17.6916V17.6866V17.6816V17.6766V17.6716V17.6667V17.6617V17.6566V17.6516V17.6466V17.6416V17.6366V17.6316V17.6265V17.6215V17.6165V17.6114V17.6064V17.6014V17.5963V17.5913V17.5862V17.5811V17.5761V17.571V17.5659V17.5609V17.5558V17.5507V17.5456V17.5405V17.5354V17.5303V17.5252V17.5201V17.515V17.5099V17.5048V17.4997V17.4945V17.4894V17.4843V17.4792V17.474V17.4689V17.4637V17.4586V17.4534V17.4483V17.4431V17.438V17.4328V17.4276V17.4225V17.4173V17.4121V17.4069V17.4017V17.3966V17.3914V17.3862V17.381V17.3758V17.3706V17.3654V17.3602V17.355V17.3497V17.3445V17.3393V17.3341V17.3288V17.3236V17.3184V17.3131V17.3079V17.3027V17.2974V17.2922V17.2869V17.2816V17.2764V17.2711V17.2659V17.2606V17.2553V17.25V17.2448V17.2395V17.2342V17.2289V17.2236V17.2183V17.2131V17.2078V17.2025V17.1972V17.1919V17.1865V17.1812V17.1759V17.1706V17.1653V17.16V17.1546V17.1493V17.144V17.1387V17.1333V17.128V17.1226V17.1173V17.112V17.1066V17.1013V17.0959V17.0905V17.0852V17.0798V17.0745V17.0691V17.0637V17.0584V17.053V17.0476V17.0422V17.0369V17.0315V17.0261V17.0207V17.0153V17.0099V17.0045V16.9991V16.9937V16.9883V16.9829V16.9775V16.9721V16.9667V16.9613V16.9559V16.9505V16.945V16.9396V16.9342V16.9288V16.9233V16.9179V16.9125V16.9071V16.9016V16.8962V16.8907V16.8853V16.8798V16.8744V16.869V16.8635V16.8581V16.8526V16.8471V16.8417V16.8362V16.8308V16.8253V16.8198V16.8144V16.8089V16.8034V16.7979V16.7925V16.787V16.7815V16.776V16.7706V16.7651V16.7596V16.7541V16.7486V16.7431V16.7376V16.7321V16.7266V16.7211V16.7156V16.7101V16.7046V16.6991V16.6936V16.6881V16.6826V16.6771V16.6716V16.6661V16.6606V16.655V16.6495V16.644V16.6385V16.633V16.6274V16.6219V16.6164V16.6108V16.6053V16.5998V16.5943V16.5887V16.5832V16.5776V16.5721V16.5666V16.561V16.5555V16.5499V16.5444V16.5389V16.5333V16.5278V16.5222V16.5167V16.5111V16.5056V16.5C5.75 14.4292 7.42922 12.75 9.5 12.75H14.5C16.5708 12.75 18.25 14.4292 18.25 16.5C18.25 17.4464 18.25 18.338 18.246 18.8936L18.246 18.8936V18.899C18.246 19.1787 18.0875 19.4375 17.834 19.566C13.8662 21.5489 10.0176 21.5374 6.20726 19.6022L6.15355 19.5743C5.90522 19.4454 5.7495 19.1886 5.75 18.9093ZM8.25 6.5C8.25 4.43021 9.93022 2.75 12 2.75C14.0698 2.75 15.75 4.43021 15.75 6.5C15.75 8.56979 14.0698 10.25 12 10.25C9.93022 10.25 8.25 8.56979 8.25 6.5Z" stroke="white" stroke-width="1.5"/>
</svg>
