<svg width="92" height="26" viewBox="0 0 92 26" fill="none" xmlns="http://www.w3.org/2000/svg">
<g clip-path="url(#clip0_450_25302)">
<path d="M51.7105 10.9513L54.5246 7.80504V1.6101C54.5246 1.56132 54.5715 1.51255 54.5715 1.51255L54.9702 1.29304V0.9272H51.1945V1.29304L51.5697 1.56133C51.687 1.63449 51.687 1.68327 51.687 1.73205V5.29292H44.1356L42.4237 7.53675V1.63449C42.4237 1.63449 42.4706 1.6101 42.5175 1.56133L42.8693 1.34182H42.9162V0.951588H39.1639V1.31743L39.5392 1.56133C39.5861 1.6101 39.633 1.6101 39.633 1.6101V12.4147C39.5861 12.439 39.5626 12.4634 39.5392 12.4878L39.1639 12.7561V13.0976H42.9162V12.7561L42.5175 12.4878C42.4471 12.439 42.4237 12.439 42.4237 12.439V7.56114L42.8224 7.68309L43.3383 7.36603C43.4321 7.31725 43.5025 7.26847 43.5728 7.24408C43.5963 7.24408 43.6666 7.21969 43.7839 7.21969H51.6401V10.9757L51.7105 10.9513Z" fill="white"/>
<path d="M91.7655 5.68315C91.3199 4.21978 90.3115 3.0247 88.7637 2.12228C87.3566 1.31743 85.3867 0.902809 82.6898 0.902809H72.4415V1.24426C72.4415 1.24426 72.8636 1.53694 72.8871 1.53694V2.80519H82.6663C84.6363 2.80519 86.0902 3.07348 86.9814 3.61004C88.3885 4.46368 89.0686 5.5612 89.0686 6.97579C89.0686 8.39038 88.881 8.34161 88.5292 8.90256C88.1774 9.46352 87.6146 9.95131 86.911 10.3415C85.973 10.8537 84.519 11.0976 82.6194 11.0976H77.507V3.65882H74.7163V12.3415C74.6694 12.3415 74.6459 12.3903 74.6225 12.4147L74.2707 12.6342H74.2473V13H82.6194C84.2376 13 85.504 12.9024 86.3717 12.7073C87.5911 12.439 88.6699 11.9756 89.5845 11.3415C90.5226 10.683 91.1792 9.92692 91.5544 9.09768C91.8358 8.48794 91.9765 7.80504 91.9765 7.09774C91.9765 6.39044 91.9062 6.07338 91.7655 5.60998V5.68315Z" fill="white"/>
<path d="M54.9702 12.6098C54.8764 12.6098 54.853 12.5854 54.8061 12.561L61.8415 4.95147L60.2233 3.14664L51.1242 13.0244H55.322V12.6098H55.1813C55.1109 12.6098 55.0406 12.6098 54.9937 12.6098H54.9702Z" fill="white"/>
<path d="M60.9737 2.68324L62.7795 4.65879L64.6322 6.60995H61.4897L59.7777 8.48794L60.1529 8.75623L60.5516 8.53672C60.5985 8.53672 60.6454 8.48794 60.6689 8.48794H66.3207L70.026 12.6098C70.026 12.6098 69.9791 12.6829 69.6508 12.6829H69.5101V13.0976H73.7079L62.6388 0.9272L61.0206 2.68324H60.9737Z" fill="white"/>
<path d="M34.0984 1.29304L34.4736 1.53694C34.5674 1.58572 34.5909 1.65888 34.5909 1.70766V12.3903C34.5205 12.4147 34.4971 12.4634 34.4736 12.4878L34.0984 12.7561V13.1219H37.8272V12.7561L37.4754 12.4878C37.4285 12.439 37.405 12.439 37.3816 12.439V1.63449L37.4754 1.53694L37.8272 1.29304V0.9272H34.0984V1.29304Z" fill="white"/>
<path d="M18.4329 10.7318L17.9404 11.0245C17.8231 11.122 17.7293 11.1464 17.7293 11.1464H9.35715C7.43414 11.1464 5.98015 10.9025 5.04209 10.3903C3.5881 9.60986 2.90801 8.51233 2.90801 7.00018C2.90801 5.48803 3.09562 5.68315 3.47084 5.0978C4.19784 3.97589 5.2297 3.2442 6.70714 2.95153C7.10582 2.87836 7.48104 2.85397 7.73901 2.85397H12.0541C12.312 2.85397 12.2651 2.90275 12.2886 2.95153L12.2417 3.26859H12.5935L14.4461 0.951588H9.31026C8.11423 0.951588 7.19962 1.00037 6.54298 1.07354C6.19121 1.12231 5.88634 1.17109 5.55802 1.24426C4.71377 1.43938 3.89297 1.78083 3.11907 2.24423C1.85269 3.00031 0.961542 3.92711 0.44561 5.04902C0.140741 5.68315 3.05176e-05 6.39045 3.05176e-05 7.17091C3.05176e-05 9.12207 1.00844 10.683 3.00182 11.8049C3.89297 12.3171 4.92484 12.6829 6.02705 12.8781C6.84785 13.0244 7.97352 13.0976 9.40406 13.0976H17.1899L19.0426 10.7562H18.4563L18.4329 10.7318Z" fill="white"/>
<path d="M14.7275 7.82942L16.5332 5.46364H4.33849L3.11902 7.36603H14.1177C14.3288 7.36603 14.3992 7.43919 14.3992 7.48797L14.3523 7.82942H14.7275Z" fill="white"/>
<path d="M13.9771 3.14664L14.3289 3.26859H14.3758L14.9152 3.00031C15.0559 2.90275 15.22 2.85397 15.3607 2.85397H22.0913V12.3903C22.0444 12.439 21.9975 12.439 21.974 12.4634L21.5988 12.7317V13.0732H25.351V12.7073L24.9524 12.4634L24.8586 12.3659V2.85397H30.8387C31.0732 2.87836 31.0966 2.95153 31.0966 2.95153V3.29298H31.425L33.2776 0.9272H15.6656L13.9536 3.14664H13.9771Z" fill="white"/>
<path d="M0.304943 24.9265V19.1461H2.08725C3.47089 19.1461 4.15098 19.6096 4.15098 20.5607C4.15098 21.5119 4.05717 21.2193 3.86956 21.4388C3.68195 21.6583 3.40053 21.8046 3.07221 21.8778C3.47089 21.9509 3.75231 22.0729 3.96337 22.2924C4.17443 22.5119 4.26824 22.829 4.26824 23.268C4.26824 23.707 4.10408 24.1704 3.7523 24.4875C3.40053 24.7801 2.86115 24.9509 2.13416 24.9509H0.281494L0.304943 24.9265ZM1.38371 21.4875H2.15761C2.48593 21.4875 2.72044 21.4388 2.86115 21.3168C3.00186 21.1949 3.07221 20.9998 3.07221 20.7315C3.07221 20.4632 3.00186 20.3169 2.86115 20.2193C2.72044 20.1217 2.48593 20.073 2.13416 20.073H1.38371V21.5119V21.4875ZM1.38371 23.9997H2.18106C2.57973 23.9997 2.8377 23.9265 3.00186 23.7802C3.16602 23.6338 3.23637 23.4143 3.23637 23.146C3.23637 22.8777 3.16602 22.6826 3.00186 22.5363C2.8377 22.4143 2.57973 22.3412 2.18106 22.3412H1.40716V23.9997H1.38371Z" fill="white"/>
<path d="M7.26999 24.9265V19.1461H10.905L10.6235 20.0973H8.34876V21.4875H9.99036V22.3656H8.34876V23.9509H10.6235L10.905 24.9021H7.26999V24.9265Z" fill="white"/>
<path d="M15.0324 24.9265V22.5607L13.2032 19.1461H14.3992L15.6187 21.5851L16.8616 19.1461H17.9403L16.1111 22.5607V24.9265H15.0324Z" fill="white"/>
<path d="M22.7948 25.0728C21.9506 25.0728 21.294 24.8045 20.8015 24.2923C20.309 23.7558 20.051 23.0241 20.051 22.0485C20.051 21.0729 20.1214 21.1217 20.2855 20.7315C20.4497 20.3412 20.6373 20.0242 20.9187 19.7803C21.1767 19.5364 21.4581 19.3413 21.7864 19.2193C22.1148 19.0974 22.4431 19.0242 22.7948 19.0242C23.6391 19.0242 24.2957 19.2925 24.7882 19.8047C25.2807 20.3412 25.5387 21.0729 25.5387 22.0485C25.5387 23.0241 25.4683 22.9753 25.3041 23.3655C25.14 23.7558 24.9524 24.0728 24.671 24.3167C24.413 24.5606 24.1316 24.7557 23.8033 24.8777C23.4749 24.9996 23.1466 25.0728 22.7948 25.0728ZM22.7948 24.0972C23.2873 24.0972 23.686 23.9265 23.9909 23.5606C24.2957 23.1948 24.4364 22.707 24.4364 22.0729C24.4364 21.4388 24.2957 20.8778 23.9909 20.512C23.7095 20.1461 23.2873 19.951 22.7948 19.951C22.3024 19.951 21.9037 20.1217 21.5988 20.4876C21.294 20.8534 21.1532 21.3412 21.1532 21.9753C21.1532 22.6095 21.294 23.1704 21.5988 23.5363C21.8802 23.9021 22.3024 24.0972 22.7948 24.0972Z" fill="white"/>
<path d="M28.306 24.9265V19.1461H29.2206L31.7768 22.9021V19.1461H32.7383V24.9265H31.9409L29.2675 20.9998V24.9265H28.306Z" fill="white"/>
<path d="M35.9745 24.9265V19.1461H37.5458C38.5073 19.1461 39.2577 19.39 39.7502 19.8291C40.2427 20.2925 40.5006 21.0241 40.5006 22.0485C40.5006 23.0729 40.4303 22.9997 40.2661 23.3899C40.102 23.7802 39.8909 24.0728 39.6329 24.2923C39.375 24.5118 39.0467 24.6826 38.6949 24.7801C38.3431 24.8777 37.9679 24.9265 37.5458 24.9265H35.9745ZM37.0533 23.9753H37.5458C38.2493 23.9753 38.7183 23.8289 38.9998 23.5363C39.2812 23.2436 39.3984 22.7558 39.3984 22.0729C39.3984 21.39 39.2577 20.9022 38.9763 20.5851C38.6949 20.2681 38.2259 20.0973 37.5223 20.0973H37.0298V23.9753H37.0533Z" fill="white"/>
<path d="M46.5276 24.9265V19.1461H48.3099C49.6936 19.1461 50.3737 19.6096 50.3737 20.5607C50.3737 21.5119 50.2799 21.2193 50.0922 21.4388C49.9046 21.6583 49.6232 21.8046 49.2949 21.8778C49.6936 21.9509 49.975 22.0729 50.1861 22.2924C50.3971 22.5119 50.4909 22.829 50.4909 23.268C50.4909 23.707 50.3268 24.1704 49.975 24.4875C49.6232 24.7801 49.0838 24.9509 48.3568 24.9509H46.5042L46.5276 24.9265ZM47.6064 21.4875H48.3803C48.7086 21.4875 48.9431 21.4388 49.0838 21.3168C49.2245 21.1949 49.2949 20.9998 49.2949 20.7315C49.2949 20.4632 49.2245 20.3169 49.0838 20.2193C48.9431 20.1217 48.7086 20.073 48.3568 20.073H47.6064V21.5119V21.4875ZM47.6064 23.9997H48.4037C48.8024 23.9997 49.0604 23.9265 49.2245 23.7802C49.3887 23.6338 49.4591 23.4143 49.4591 23.146C49.4591 22.8777 49.3887 22.6826 49.2245 22.5363C49.0604 22.4143 48.8024 22.3412 48.4037 22.3412H47.6298V23.9997H47.6064Z" fill="white"/>
<path d="M55.5799 25.0728C54.7357 25.0728 54.079 24.8045 53.5865 24.2923C53.0941 23.7558 52.8361 23.0241 52.8361 22.0485C52.8361 21.0729 52.9064 21.1217 53.0706 20.7315C53.2348 20.3412 53.4224 20.0242 53.7038 19.7803C53.9618 19.5364 54.2432 19.3413 54.5715 19.2193C54.8998 19.0974 55.2281 19.0242 55.5799 19.0242C56.4242 19.0242 57.0808 19.2925 57.5733 19.8047C58.0658 20.3412 58.3237 21.0729 58.3237 22.0485C58.3237 23.0241 58.2534 22.9753 58.0892 23.3655C57.9251 23.7558 57.7374 24.0728 57.456 24.3167C57.1981 24.5606 56.9166 24.7557 56.5883 24.8777C56.26 24.9996 55.9317 25.0728 55.5799 25.0728ZM55.5799 24.0972C56.0724 24.0972 56.4711 23.9265 56.7759 23.5606C57.0808 23.1948 57.2215 22.707 57.2215 22.0729C57.2215 21.4388 57.0808 20.8778 56.7759 20.512C56.4945 20.1461 56.0724 19.951 55.5799 19.951C55.0874 19.951 54.6887 20.1217 54.3839 20.4876C54.079 20.8534 53.9383 21.3412 53.9383 21.9753C53.9383 22.6095 54.079 23.1704 54.3839 23.5363C54.6653 23.9021 55.0874 24.0972 55.5799 24.0972Z" fill="white"/>
<path d="M63.9287 24.9265L62.6623 23.0241H62.0526V24.9265H60.9738V19.1461H62.7561C63.4127 19.1461 63.9052 19.2925 64.257 19.6096C64.6088 19.9266 64.7729 20.39 64.7729 20.9998C64.7729 21.6095 64.6791 21.829 64.468 22.1705C64.2804 22.5119 63.999 22.7314 63.6238 22.9021L65.1481 24.9509H63.9287V24.9265ZM62.0291 22.2436H62.7326C63.3424 22.2436 63.6472 21.8534 63.6472 21.0973C63.6472 20.3412 63.5769 20.4876 63.4362 20.3168C63.2955 20.1461 63.061 20.0486 62.7326 20.0486H62.0291V22.2436Z" fill="white"/>
<path d="M67.7747 24.9265V19.1461H69.3459C70.3074 19.1461 71.0579 19.39 71.5504 19.8291C72.0428 20.2925 72.3008 21.0241 72.3008 22.0485C72.3008 23.0729 72.2305 22.9997 72.0663 23.3899C71.9021 23.7802 71.6911 24.0728 71.4331 24.2923C71.1751 24.5118 70.8468 24.6826 70.495 24.7801C70.1433 24.8777 69.768 24.9265 69.3459 24.9265H67.7747ZM68.8534 23.9753H69.3459C70.0495 23.9753 70.5185 23.8289 70.7999 23.5363C71.0813 23.2436 71.1986 22.7558 71.1986 22.0729C71.1986 21.39 71.0579 20.9022 70.7765 20.5851C70.4951 20.2681 70.026 20.0973 69.3225 20.0973H68.83V23.9753H68.8534Z" fill="white"/>
<path d="M75.2791 24.9265V19.1461H78.9141L78.6327 20.0973H76.3579V21.4875H77.9995V22.3656H76.3579V23.9509H78.6327L78.9141 24.9021H75.2791V24.9265Z" fill="white"/>
<path d="M84.777 24.9265L83.5106 23.0241H82.9009V24.9265H81.8221V19.1461H83.6044C84.261 19.1461 84.7535 19.2925 85.1053 19.6096C85.4571 19.9266 85.6212 20.39 85.6212 20.9998C85.6212 21.6095 85.5274 21.829 85.3164 22.1705C85.1287 22.5119 84.8473 22.7314 84.4721 22.9021L85.9964 24.9509H84.777V24.9265ZM82.9009 22.2436H83.6044C84.2141 22.2436 84.519 21.8534 84.519 21.0973C84.519 20.3412 84.4487 20.4876 84.3079 20.3168C84.1672 20.1461 83.9327 20.0486 83.6044 20.0486H82.9009V22.2436Z" fill="white"/>
<path d="M89.8894 25.0728C89.3031 25.0728 88.8341 24.9509 88.4823 24.6826V23.5119C88.9044 23.9021 89.3969 24.0972 89.9363 24.0972C90.4757 24.0972 90.9447 23.8289 90.9447 23.2924C90.9447 22.7558 90.8743 22.9265 90.7336 22.8046C90.5929 22.6826 90.3584 22.5851 90.0301 22.5119L89.819 22.4631C88.881 22.2192 88.412 21.6827 88.412 20.8046C88.412 19.9266 88.5761 19.8047 88.9279 19.4876C89.2796 19.1705 89.7487 19.0242 90.4053 19.0242C91.062 19.0242 91.4841 19.1461 91.8359 19.39V20.5607C91.6717 20.4144 91.4841 20.2681 91.2027 20.1705C90.9213 20.073 90.6633 19.9998 90.3584 19.9998C90.0536 19.9998 89.819 20.0486 89.6783 20.1705C89.5376 20.2925 89.4673 20.4632 89.4673 20.7071C89.4673 20.951 89.5376 21.0973 89.6549 21.1949C89.7721 21.3168 90.0066 21.4144 90.335 21.4875L90.546 21.5363C91.0385 21.6583 91.4137 21.8534 91.6483 22.0973C91.8828 22.3412 92 22.707 92 23.1704C92 23.6338 91.8359 24.2192 91.4841 24.585C91.1323 24.9509 90.6164 25.0972 89.9128 25.0972L89.8894 25.0728Z" fill="white"/>
</g>
<defs>
<clipPath id="clip0_450_25302">
<rect width="92" height="26" fill="white"/>
</clipPath>
</defs>
</svg>
