<svg width="24" height="24" viewBox="0 0 24 24" fill="none" xmlns="http://www.w3.org/2000/svg">
<path d="M9.09001 8C9.32511 7.33167 9.78916 6.76811 10.4 6.40913C11.0108 6.05016 11.7289 5.91894 12.4272 6.03871C13.1255 6.15849 13.7588 6.52152 14.2151 7.06353C14.6713 7.60553 14.9211 8.29152 14.92 9C14.92 11 11.92 12 11.92 12V15.5443M22.0391 12.0234C22.0391 17.5463 17.5619 22.0234 12.0391 22.0234C6.51621 22.0234 2.03906 17.5463 2.03906 12.0234C2.03906 6.50059 6.51621 2.02344 12.0391 2.02344C17.5619 2.02344 22.0391 6.50059 22.0391 12.0234ZM12.4008 18.4441C12.4008 18.7097 12.1856 18.925 11.92 18.925C11.6545 18.925 11.4392 18.7097 11.4392 18.4441C11.4392 18.1786 11.6545 17.9633 11.92 17.9633C12.1856 17.9633 12.4008 18.1786 12.4008 18.4441Z" stroke="white" stroke-linecap="round" stroke-linejoin="round"/>
</svg>
