<svg width="24" height="24" viewBox="0 0 24 24" fill="none" xmlns="http://www.w3.org/2000/svg">
<path fill-rule="evenodd" clip-rule="evenodd" d="M15.6027 13.0785C17.0585 12.0567 18 10.431 18 8.6C18 5.5072 15.3137 3 12 3C8.68629 3 6 5.5072 6 8.6C6 10.4326 6.9432 12.0597 8.40124 13.0813C8.36247 13.1324 8.33604 13.1929 8.32659 13.2593L7.28945 20.5473C7.26778 20.6996 7.34144 20.85 7.47898 20.9343C7.61653 21.0186 7.79367 21.022 7.93478 20.943L12 18.6665L16.0652 20.943C16.2063 21.022 16.3834 21.0187 16.521 20.9343C16.6585 20.85 16.7322 20.6996 16.7106 20.5474L15.6734 13.2514C15.6643 13.1872 15.6393 13.1286 15.6027 13.0785ZM14.8484 13.53C14.0009 13.9574 13.0308 14.2 12 14.2C10.9696 14.2 9.99985 13.9576 9.15267 13.5305L8.25619 19.8301L11.7795 17.857C11.9152 17.781 12.0848 17.781 12.2205 17.857L15.7439 19.8301L14.8484 13.53Z" fill="#DEC39B"/>
</svg>
