<svg width="24" height="24" viewBox="0 0 24 24" fill="none" xmlns="http://www.w3.org/2000/svg">
<path d="M4.8 19C4.305 19 3.88125 18.8286 3.52875 18.4859C3.17625 18.1432 3 17.7313 3 17.25V14.2969C3 14.1365 3.0525 13.9979 3.1575 13.8813C3.2625 13.7646 3.3975 13.6917 3.5625 13.6625C3.9225 13.5458 4.21875 13.3344 4.45125 13.0281C4.68375 12.7219 4.8 12.3792 4.8 12C4.8 11.6208 4.68375 11.2781 4.45125 10.9719C4.21875 10.6656 3.9225 10.4542 3.5625 10.3375C3.3975 10.3083 3.2625 10.2354 3.1575 10.1187C3.0525 10.0021 3 9.86354 3 9.70312V6.75C3 6.26875 3.17625 5.85677 3.52875 5.51406C3.88125 5.17135 4.305 5 4.8 5H19.2C19.695 5 20.1187 5.17135 20.4712 5.51406C20.8237 5.85677 21 6.26875 21 6.75V17.25C21 17.7313 20.8237 18.1432 20.4712 18.4859C20.1187 18.8286 19.695 19 19.2 19H4.8Z" stroke="white"/>
<path d="M11.4325 12.4188L9.2725 12.9437L8.305 12.2437C8.26 12.2146 8.08892 12.1398 7.945 12.1563C7.75376 12.1781 7.61098 12.283 7.54 12.4297C7.48 12.5536 7.4875 12.674 7.5625 12.7906L8.5975 14.5406C8.6575 14.6281 8.7325 14.6901 8.8225 14.7266C8.9125 14.763 9.01 14.7667 9.115 14.7375L16.7875 12.7688C17.0125 12.7104 17.1812 12.5755 17.2937 12.3641C17.4062 12.1526 17.4325 11.9375 17.3725 11.7188C17.3125 11.5 17.1813 11.3359 16.9788 11.2266C16.7763 11.1172 16.5625 11.0917 16.3375 11.15L14.1325 11.7188L10.78 8.65625C10.705 8.58333 10.615 8.53594 10.51 8.51406C10.405 8.49219 10.3 8.49583 10.195 8.525L10.0825 8.54687C9.8725 8.59062 9.72625 8.70729 9.64375 8.89687C9.56125 9.08646 9.5725 9.26875 9.6775 9.44375L11.4325 12.4188Z" stroke="white"/>
</svg>
