<svg width="24" height="24" viewBox="0 0 24 24" fill="none" xmlns="http://www.w3.org/2000/svg">
<path d="M3.09217 19.225L12.3564 4.875C12.5288 4.59167 12.7522 4.375 13.0265 4.225C13.3008 4.075 13.5947 4 13.9083 4H19.1282C19.7239 4 20.2059 4.24167 20.5743 4.725C20.9426 5.20833 21.072 5.75833 20.9622 6.375L18.705 19.175C18.6579 19.4083 18.5482 19.6042 18.3758 19.7625C18.2033 19.9208 18.0074 20 17.7879 20H3.46838C3.28028 20 3.14312 19.9125 3.0569 19.7375C2.97069 19.5625 2.98244 19.3917 3.09217 19.225ZM14.3315 14C14.9899 14 15.5463 13.7583 16.0009 13.275C16.4555 12.7917 16.6828 12.2 16.6828 11.5C16.6828 10.8 16.4555 10.2083 16.0009 9.725C15.5463 9.24167 14.9899 9 14.3315 9C13.6731 9 13.1166 9.24167 12.6621 9.725C12.2075 10.2083 11.9802 10.8 11.9802 11.5C11.9802 12.2 12.2075 12.7917 12.6621 13.275C13.1166 13.7583 13.6731 14 14.3315 14Z" stroke="white"/>
</svg>
