<svg width="24" height="24" viewBox="0 0 24 24" fill="none" xmlns="http://www.w3.org/2000/svg">
<path d="M19.371 5H4.8C3.81 5 3.009 5.7875 3.009 6.75V10.25C3.999 10.25 4.8 11.0375 4.8 12C4.8 12.9625 3.999 13.75 3 13.75V17.25C3 18.2125 3.81 19 4.8 19H19.2C20.19 19 21 18.2125 21 17.25V6.75C21 5.7875 20.271 5 19.371 5ZM17.157 13.1375L9.183 15.2025L7.689 12.6825L8.526 12.4637L9.66 13.33L11.811 12.77L9.651 9.13L10.911 8.7975L14.52 12.07L16.716 11.5013C17.175 11.3788 17.652 11.65 17.778 12.0962C17.895 12.5425 17.625 13.0062 17.157 13.1375Z" fill="#DEC39B"/>
</svg>
