<svg width="24" height="24" viewBox="0 0 24 24" fill="none" xmlns="http://www.w3.org/2000/svg">
<path fill-rule="evenodd" clip-rule="evenodd" d="M13.9083 3.5C13.5112 3.5 13.1347 3.59596 12.7866 3.7863C12.4326 3.9799 12.1477 4.25831 11.9329 4.60909L2.67318 18.9522C2.46994 19.2623 2.442 19.6207 2.6084 19.9585C2.68382 20.1116 2.79578 20.254 2.95554 20.3559C3.11638 20.4585 3.29427 20.5 3.4684 20.5H17.788C18.1415 20.5 18.456 20.3676 18.714 20.1308C18.9657 19.8997 19.1277 19.6089 19.1953 19.2738L21.4546 6.46183C21.5878 5.71252 21.4279 5.02012 20.9719 4.42192C20.5112 3.81744 19.8836 3.5 19.1282 3.5H13.9083ZM13.0263 10.0676C13.3872 9.6838 13.8123 9.5 14.3315 9.5C14.8507 9.5 15.2758 9.6838 15.6367 10.0676C15.999 10.4527 16.1828 10.9196 16.1828 11.5C16.1828 12.0804 15.999 12.5473 15.6367 12.9324C15.2758 13.3162 14.8507 13.5 14.3315 13.5C13.8123 13.5 13.3872 13.3162 13.0263 12.9324C12.6641 12.5473 12.4802 12.0804 12.4802 11.5C12.4802 10.9196 12.6641 10.4527 13.0263 10.0676Z" fill="#DEC39B"/>
</svg>
