<svg width="24" height="24" viewBox="0 0 24 24" fill="none" xmlns="http://www.w3.org/2000/svg">
<path d="M12 3C11.0307 3 10.2474 3.78334 10.2474 4.75263V9.17118L3.23352 13.297C3.08884 13.3821 3 13.5374 3 13.7053V15.4105C3 15.5598 3.07037 15.7004 3.1899 15.7898C3.30943 15.8792 3.46412 15.9071 3.60734 15.865L10.2474 13.912V17.7002L8.34577 18.8412C8.20309 18.9268 8.11579 19.081 8.11579 19.2474V20.5263C8.11579 20.6722 8.18299 20.8099 8.29796 20.8997C8.41293 20.9894 8.56285 21.0212 8.70436 20.9859L12 20.1619L15.2956 20.9859C15.4372 21.0212 15.5871 20.9894 15.702 20.8997C15.817 20.8099 15.8842 20.6722 15.8842 20.5263V19.2474C15.8842 19.081 15.7969 18.9268 15.6542 18.8412L13.7526 17.7002V13.912L20.3927 15.865C20.5359 15.9071 20.6906 15.8792 20.8101 15.7898C20.9296 15.7004 21 15.5598 21 15.4105V13.7053C21 13.5374 20.9112 13.3821 20.7665 13.297L13.7526 9.17118V4.75263C13.7526 3.78334 12.9693 3 12 3Z" fill="#DEC39B"/>
</svg>
